<mxfile host="app.diagrams.net" modified="2022-05-12T17:15:44.899Z" agent="5.0 (Windows NT 10.0; Win64; x64) AppleWebKit/537.36 (KHTML, like Gecko) Chrome/101.0.4951.54 Safari/537.36" etag="HHPTiW8My3UsG8hvtgxk" version="18.0.3" type="github" pages="2">
  <diagram id="5UxQ4w3Qg_B5sZMbcGU8" name="Page-1">
    <mxGraphModel dx="1422" dy="794" grid="1" gridSize="10" guides="1" tooltips="1" connect="1" arrows="1" fold="1" page="1" pageScale="1" pageWidth="827" pageHeight="1169" math="0" shadow="0">
      <root>
        <mxCell id="0" />
        <mxCell id="1" parent="0" />
        <mxCell id="sStkoHMuvhqnxal9wtGp-1" value="&lt;p style=&quot;margin: 4px 0px 0px ; text-align: center ; text-decoration: underline ; font-size: 19px&quot;&gt;&lt;b style=&quot;font-size: 19px&quot;&gt;walkman:Player&lt;/b&gt;&lt;/p&gt;&lt;hr style=&quot;font-size: 19px&quot;&gt;&lt;p style=&quot;margin: 0px 0px 0px 8px ; font-size: 19px&quot;&gt;portatil = true&lt;br style=&quot;font-size: 19px&quot;&gt;modelo = Ericson&lt;br&gt;&lt;/p&gt;" style="verticalAlign=top;align=left;overflow=fill;fontSize=19;fontFamily=Helvetica;html=1;fillColor=#ffe6cc;strokeColor=#d79b00;sketch=1;" parent="1" vertex="1">
          <mxGeometry x="490" y="170" width="220" height="130" as="geometry" />
        </mxCell>
        <mxCell id="sStkoHMuvhqnxal9wtGp-2" value="&lt;font style=&quot;font-size: 25px&quot;&gt;&lt;b&gt;ASSOCIAÇÃO&lt;br&gt;&lt;br&gt;&lt;br&gt;&lt;br&gt;&lt;br&gt;&lt;br&gt;&lt;br&gt;&lt;br&gt;&lt;br&gt;&lt;br&gt;&lt;br&gt;&lt;/b&gt;&lt;/font&gt;" style="rounded=0;whiteSpace=wrap;html=1;fillColor=#ffe6cc;strokeColor=#d79b00;shadow=0;sketch=1;glass=0;align=center;" parent="1" vertex="1">
          <mxGeometry x="60" y="30" width="370" height="360" as="geometry" />
        </mxCell>
        <mxCell id="sStkoHMuvhqnxal9wtGp-3" value="&lt;p style=&quot;margin: 4px 0px 0px ; text-align: center ; text-decoration: underline ; font-size: 19px&quot;&gt;&lt;b style=&quot;font-size: 19px&quot;&gt;charlie brown jr:CD&lt;/b&gt;&lt;/p&gt;&lt;hr style=&quot;font-size: 19px&quot;&gt;&lt;p style=&quot;margin: 0px 0px 0px 8px ; font-size: 19px&quot;&gt;álbum: Acústico MTV&lt;br&gt;&lt;/p&gt;&lt;p style=&quot;margin: 0px 0px 0px 8px ; font-size: 19px&quot;&gt;duração: 53m17s&lt;/p&gt;" style="verticalAlign=top;align=left;overflow=fill;fontSize=19;fontFamily=Helvetica;html=1;fillColor=#ffe6cc;strokeColor=#d79b00;sketch=1;" parent="1" vertex="1">
          <mxGeometry x="520" y="370" width="220" height="130" as="geometry" />
        </mxCell>
        <mxCell id="sStkoHMuvhqnxal9wtGp-4" value="" style="edgeStyle=orthogonalEdgeStyle;orthogonalLoop=1;jettySize=auto;exitX=0.5;exitY=0;exitDx=0;exitDy=0;entryX=0.427;entryY=1.023;entryDx=0;entryDy=0;fontSize=19;fontColor=#393C56;labelBorderColor=none;html=1;entryPerimeter=0;sketch=1;shadow=0;endArrow=none;endFill=0;rounded=1;labelBackgroundColor=#F4F1DE;strokeColor=#E07A5F;" parent="1" source="sStkoHMuvhqnxal9wtGp-3" target="sStkoHMuvhqnxal9wtGp-1" edge="1">
          <mxGeometry relative="1" as="geometry" />
        </mxCell>
        <mxCell id="sStkoHMuvhqnxal9wtGp-5" value="&lt;font style=&quot;font-size: 25px&quot;&gt;&lt;b&gt;AGREGAÇÃO&lt;br&gt;&lt;br&gt;&lt;br&gt;&lt;br&gt;&lt;br&gt;&lt;br&gt;&lt;br&gt;&lt;/b&gt;&lt;/font&gt;" style="rounded=0;whiteSpace=wrap;html=1;fillColor=#6d8764;strokeColor=#3A5431;shadow=0;sketch=1;glass=0;fontColor=#000000;align=center;" parent="1" vertex="1">
          <mxGeometry x="100" y="110" width="290" height="250" as="geometry" />
        </mxCell>
        <mxCell id="sStkoHMuvhqnxal9wtGp-6" value="&lt;p style=&quot;margin: 4px 0px 0px ; text-align: center ; text-decoration: underline ; font-size: 19px&quot;&gt;&lt;b style=&quot;font-size: 19px&quot;&gt;meu carrinho:Carrinho&lt;/b&gt;&lt;/p&gt;&lt;hr style=&quot;font-size: 19px&quot;&gt;&lt;p style=&quot;margin: 0px 0px 0px 8px ; font-size: 19px&quot;&gt;capacidade: 10&lt;/p&gt;" style="verticalAlign=top;align=left;overflow=fill;fontSize=19;fontFamily=Helvetica;html=1;fillColor=#6d8764;strokeColor=#3A5431;sketch=1;fontColor=#000000;" parent="1" vertex="1">
          <mxGeometry x="80" y="600" width="220" height="130" as="geometry" />
        </mxCell>
        <mxCell id="sStkoHMuvhqnxal9wtGp-7" value="&lt;p style=&quot;margin: 4px 0px 0px ; text-align: center ; text-decoration: underline ; font-size: 19px&quot;&gt;&lt;b style=&quot;font-size: 19px&quot;&gt;livro:Produto&lt;/b&gt;&lt;/p&gt;&lt;hr style=&quot;font-size: 19px&quot;&gt;&lt;p style=&quot;margin: 0px 0px 0px 8px ; font-size: 19px&quot;&gt;titulo: Sob a Redoma&lt;/p&gt;&lt;p style=&quot;margin: 0px 0px 0px 8px ; font-size: 19px&quot;&gt;autor: Stephen King&lt;/p&gt;" style="verticalAlign=top;align=left;overflow=fill;fontSize=19;fontFamily=Helvetica;html=1;fillColor=#6d8764;strokeColor=#3A5431;sketch=1;fontColor=#000000;" parent="1" vertex="1">
          <mxGeometry x="460" y="580" width="220" height="130" as="geometry" />
        </mxCell>
        <mxCell id="sStkoHMuvhqnxal9wtGp-8" value="" style="endArrow=diamondThin;endFill=0;endSize=24;html=1;rounded=1;shadow=0;labelBorderColor=none;sketch=1;fontSize=19;fontColor=#393C56;entryX=1.009;entryY=0.354;entryDx=0;entryDy=0;entryPerimeter=0;exitX=-0.018;exitY=0.408;exitDx=0;exitDy=0;exitPerimeter=0;labelBackgroundColor=#F4F1DE;strokeColor=#3A5431;fillColor=#6d8764;" parent="1" source="sStkoHMuvhqnxal9wtGp-7" target="sStkoHMuvhqnxal9wtGp-6" edge="1">
          <mxGeometry width="160" relative="1" as="geometry">
            <mxPoint x="330" y="580" as="sourcePoint" />
            <mxPoint x="490" y="580" as="targetPoint" />
          </mxGeometry>
        </mxCell>
        <mxCell id="sStkoHMuvhqnxal9wtGp-9" value="&lt;p style=&quot;margin: 4px 0px 0px ; text-align: center ; text-decoration: underline ; font-size: 19px&quot;&gt;&lt;b style=&quot;font-size: 19px&quot;&gt;lucas:Funcionário&lt;/b&gt;&lt;/p&gt;&lt;p style=&quot;margin: 0px 0px 0px 8px ; font-size: 19px&quot;&gt;cpf: 111.111.111-11&lt;/p&gt;&lt;p style=&quot;margin: 0px 0px 0px 8px ; font-size: 19px&quot;&gt;cargo: desenvolvedor&lt;/p&gt;&lt;p style=&quot;margin: 0px 0px 0px 8px ; font-size: 19px&quot;&gt;nível: júnior&lt;/p&gt;" style="verticalAlign=top;align=left;overflow=fill;fontSize=19;fontFamily=Helvetica;html=1;fillColor=#f8cecc;strokeColor=#b85450;sketch=1;" parent="1" vertex="1">
          <mxGeometry x="80" y="930" width="220" height="130" as="geometry" />
        </mxCell>
        <mxCell id="sStkoHMuvhqnxal9wtGp-10" value="&lt;p style=&quot;margin: 4px 0px 0px ; text-align: center ; text-decoration: underline ; font-size: 19px&quot;&gt;&lt;b style=&quot;font-size: 19px&quot;&gt;marina:Dependente&lt;/b&gt;&lt;/p&gt;&lt;p style=&quot;margin: 0px 0px 0px 8px ; font-size: 19px&quot;&gt;CPF: 222.222.222-22&lt;/p&gt;&lt;p style=&quot;margin: 0px 0px 0px 8px ; font-size: 19px&quot;&gt;idade: 1 ano&lt;/p&gt;" style="verticalAlign=top;align=left;overflow=fill;fontSize=19;fontFamily=Helvetica;html=1;fillColor=#f8cecc;strokeColor=#b85450;sketch=1;" parent="1" vertex="1">
          <mxGeometry x="490" y="920" width="220" height="130" as="geometry" />
        </mxCell>
        <mxCell id="sStkoHMuvhqnxal9wtGp-11" value="" style="endArrow=diamondThin;endFill=1;endSize=24;html=1;rounded=1;shadow=0;labelBorderColor=none;sketch=0;fontSize=19;fontColor=#393C56;entryX=1;entryY=0.5;entryDx=0;entryDy=0;exitX=-0.018;exitY=0.385;exitDx=0;exitDy=0;exitPerimeter=0;labelBackgroundColor=#F4F1DE;fillColor=#e51400;strokeColor=#B20000;" parent="1" source="sStkoHMuvhqnxal9wtGp-10" target="sStkoHMuvhqnxal9wtGp-9" edge="1">
          <mxGeometry width="160" relative="1" as="geometry">
            <mxPoint x="330" y="420" as="sourcePoint" />
            <mxPoint x="490" y="420" as="targetPoint" />
          </mxGeometry>
        </mxCell>
        <mxCell id="sStkoHMuvhqnxal9wtGp-12" value="&lt;font style=&quot;font-size: 25px&quot;&gt;&lt;b&gt;COMPOSIÇÃO&lt;br&gt;&lt;br&gt;&lt;br&gt;&lt;/b&gt;&lt;/font&gt;" style="rounded=0;whiteSpace=wrap;html=1;shadow=0;sketch=1;glass=0;align=center;fillColor=#f8cecc;strokeColor=#b85450;" parent="1" vertex="1">
          <mxGeometry x="121.25" y="210" width="247.5" height="120" as="geometry" />
        </mxCell>
        <mxCell id="sStkoHMuvhqnxal9wtGp-13" value="Associação simples" style="text;html=1;strokeColor=none;fillColor=none;align=left;verticalAlign=middle;whiteSpace=wrap;rounded=0;shadow=0;glass=0;sketch=1;fontSize=30;fontColor=#393C56;" parent="1" vertex="1">
          <mxGeometry x="470" y="130" width="300" height="30" as="geometry" />
        </mxCell>
        <mxCell id="sStkoHMuvhqnxal9wtGp-14" value="Agregação:&lt;br&gt;&lt;font style=&quot;font-size: 17px;&quot;&gt;Carrinho tem Produtos&lt;br&gt;Carrinho agrega Produtos&lt;br&gt;se o Carrinho é excluído, o Produto não é&lt;br&gt;&lt;/font&gt;" style="text;html=1;strokeColor=none;fillColor=none;align=left;verticalAlign=middle;whiteSpace=wrap;rounded=0;shadow=0;glass=0;sketch=1;fontSize=30;fontColor=#393C56;" parent="1" vertex="1">
          <mxGeometry x="90" y="500" width="350" height="20" as="geometry" />
        </mxCell>
        <mxCell id="sStkoHMuvhqnxal9wtGp-15" value="Composição:&lt;br&gt;&lt;font style=&quot;font-size: 17px;&quot;&gt;Funcionário tem Dependentes&lt;br&gt;Funcionário é composto de Dependentes&lt;br&gt;se o Funcionário é excluído, a Dependente também é&amp;nbsp;&lt;br&gt;&lt;/font&gt;" style="text;html=1;strokeColor=none;fillColor=none;align=left;verticalAlign=middle;whiteSpace=wrap;rounded=0;shadow=0;glass=0;sketch=1;fontSize=30;fontColor=#393C56;" parent="1" vertex="1">
          <mxGeometry x="90" y="830" width="470" height="30" as="geometry" />
        </mxCell>
        <mxCell id="sStkoHMuvhqnxal9wtGp-16" value="&lt;p style=&quot;margin: 4px 0px 0px ; text-align: center ; text-decoration: underline ; font-size: 19px&quot;&gt;&lt;b style=&quot;font-size: 19px&quot;&gt;acustico mtv:Álbum&lt;/b&gt;&lt;/p&gt;&lt;hr style=&quot;font-size: 19px&quot;&gt;&lt;p style=&quot;margin: 0px 0px 0px 8px ; font-size: 19px&quot;&gt;ano: 2003&lt;/p&gt;&lt;span style=&quot;font-family: monospace; font-size: 0px;&quot;&gt;%3CmxGraphModel%3E%3Croot%3E%3CmxCell%20id%3D%220%22%2F%3E%3CmxCell%20id%3D%221%22%20parent%3D%220%22%2F%3E%3CmxCell%20id%3D%222%22%20value%3D%22%26lt%3Bp%20style%3D%26quot%3Bmargin%3A%204px%200px%200px%20%3B%20text-align%3A%20center%20%3B%20text-decoration%3A%20underline%20%3B%20font-size%3A%2019px%26quot%3B%26gt%3B%26lt%3Bb%20style%3D%26quot%3Bfont-size%3A%2019px%26quot%3B%26gt%3Blivro%3AProduto%26lt%3B%2Fb%26gt%3B%26lt%3B%2Fp%26gt%3B%26lt%3Bhr%20style%3D%26quot%3Bfont-size%3A%2019px%26quot%3B%26gt%3B%26lt%3Bp%20style%3D%26quot%3Bmargin%3A%200px%200px%200px%208px%20%3B%20font-size%3A%2019px%26quot%3B%26gt%3Btitulo%3A%20Sob%20a%20Redoma%26lt%3B%2Fp%26gt%3B%26lt%3Bp%20style%3D%26quot%3Bmargin%3A%200px%200px%200px%208px%20%3B%20font-size%3A%2019px%26quot%3B%26gt%3Bautor%3A%20Stephen%20King%26lt%3B%2Fp%26gt%3B%22%20style%3D%22verticalAlign%3Dtop%3Balign%3Dleft%3Boverflow%3Dfill%3BfontSize%3D19%3BfontFamily%3DHelvetica%3Bhtml%3D1%3BfillColor%3D%236d8764%3BstrokeColor%3D%233A5431%3Bsketch%3D1%3BfontColor%3D%23000000%3B%22%20vertex%3D%221%22%20parent%3D%221%22%3E%3CmxGeometry%20x%3D%22460%22%20y%3D%22580%22%20width%3D%22220%22%20height%3D%22130%22%20as%3D%22geometry%22%2F%3E%3C%2FmxCell%3E%3C%2Froot%3E%3C%2FmxGraphModel%3&lt;br&gt;&lt;/span&gt;" style="verticalAlign=top;align=left;overflow=fill;fontSize=19;fontFamily=Helvetica;html=1;fillColor=#6d8764;strokeColor=#3A5431;sketch=1;fontColor=#000000;" parent="1" vertex="1">
          <mxGeometry x="827" y="360" width="300" height="130" as="geometry" />
        </mxCell>
        <mxCell id="sStkoHMuvhqnxal9wtGp-17" value="&lt;p style=&quot;margin: 4px 0px 0px ; text-align: center ; text-decoration: underline ; font-size: 19px&quot;&gt;&lt;b style=&quot;font-size: 19px&quot;&gt;papo reto:Música&lt;/b&gt;&lt;/p&gt;&lt;hr style=&quot;font-size: 19px&quot;&gt;&lt;p style=&quot;margin: 0px 0px 0px 8px ; font-size: 19px&quot;&gt;duração: 3m50s&lt;/p&gt;&lt;span style=&quot;font-family: monospace; font-size: 0px;&quot;&gt;%3CmxGraphModel%3E%3Croot%3E%3CmxCell%20id%3D%220%22%2F%3E%3CmxCell%20id%3D%221%22%20parent%3D%220%22%2F%3E%3CmxCell%20id%3D%222%22%20value%3D%22%26lt%3Bp%20style%3D%26quot%3Bmargin%3A%204px%200px%200px%20%3B%20text-align%3A%20center%20%3B%20text-decoration%3A%20underline%20%3B%20font-size%3A%2019px%26quot%3B%26gt%3B%26lt%3Bb%20style%3D%26quot%3Bfont-size%3A%2019px%26quot%3B%26gt%3Blivro%3AProduto%26lt%3B%2Fb%26gt%3B%26lt%3B%2Fp%26gt%3B%26lt%3Bhr%20style%3D%26quot%3Bfont-size%3A%2019px%26quot%3B%26gt%3B%26lt%3Bp%20style%3D%26quot%3Bmargin%3A%200px%200px%200px%208px%20%3B%20font-size%3A%2019px%26quot%3B%26gt%3Btitulo%3A%20Sob%20a%20Redoma%26lt%3B%2Fp%26gt%3B%26lt%3Bp%20style%3D%26quot%3Bmargin%3A%200px%200px%200px%208px%20%3B%20font-size%3A%2019px%26quot%3B%26gt%3Bautor%3A%20Stephen%20King%26lt%3B%2Fp%26gt%3B%22%20style%3D%22verticalAlign%3Dtop%3Balign%3Dleft%3Boverflow%3Dfill%3BfontSize%3D19%3BfontFamily%3DHelvetica%3Bhtml%3D1%3BfillColor%3D%236d8764%3BstrokeColor%3D%233A5431%3Bsketch%3D1%3BfontColor%3D%23000000%3B%22%20vertex%3D%221%22%20parent%3D%221%22%3E%3CmxGeometry%20x%3D%22460%22%20y%3D%22580%22%20width%3D%22220%22%20height%3D%22130%22%20as%3D%22geometry%22%2F%3E%3C%2FmxCell%3E%3C%2Froot%3E%3C%2FmxGraphModel%3E&lt;br&gt;&lt;/span&gt;" style="verticalAlign=top;align=left;overflow=fill;fontSize=19;fontFamily=Helvetica;html=1;fillColor=#6d8764;strokeColor=#3A5431;sketch=1;fontColor=#000000;" parent="1" vertex="1">
          <mxGeometry x="820" y="700" width="270" height="130" as="geometry" />
        </mxCell>
        <mxCell id="sStkoHMuvhqnxal9wtGp-18" value="&lt;p style=&quot;margin: 4px 0px 0px ; text-align: center ; text-decoration: underline ; font-size: 19px&quot;&gt;&lt;b style=&quot;font-size: 19px&quot;&gt;só por uma noite:Música&lt;/b&gt;&lt;/p&gt;&lt;hr style=&quot;font-size: 19px&quot;&gt;&lt;p style=&quot;margin: 0px 0px 0px 8px ; font-size: 19px&quot;&gt;duração: 3m12s&lt;/p&gt;&lt;span style=&quot;font-family: monospace; font-size: 0px;&quot;&gt;%3CmxGraphModel%3E%3Croot%3E%3CmxCell%20id%3D%220%22%2F%3E%3CmxCell%20id%3D%221%22%20parent%3D%220%22%2F%3E%3CmxCell%20id%3D%222%22%20value%3D%22%26lt%3Bp%20style%3D%26quot%3Bmargin%3A%204px%200px%200px%20%3B%20text-align%3A%20center%20%3B%20text-decoration%3A%20underline%20%3B%20font-size%3A%2019px%26quot%3B%26gt%3B%26lt%3Bb%20style%3D%26quot%3Bfont-size%3A%2019px%26quot%3B%26gt%3Blivro%3AProduto%26lt%3B%2Fb%26gt%3B%26lt%3B%2Fp%26gt%3B%26lt%3Bhr%20style%3D%26quot%3Bfont-size%3A%2019px%26quot%3B%26gt%3B%26lt%3Bp%20style%3D%26quot%3Bmargin%3A%200px%200px%200px%208px%20%3B%20font-size%3A%2019px%26quot%3B%26gt%3Btitulo%3A%20Sob%20a%20Redoma%26lt%3B%2Fp%26gt%3B%26lt%3Bp%20style%3D%26quot%3Bmargin%3A%200px%200px%200px%208px%20%3B%20font-size%3A%2019px%26quot%3B%26gt%3Bautor%3A%20Stephen%20King%26lt%3B%2Fp%26gt%3B%22%20style%3D%22verticalAlign%3Dtop%3Balign%3Dleft%3Boverflow%3Dfill%3BfontSize%3D19%3BfontFamily%3DHelvetica%3Bhtml%3D1%3BfillColor%3D%236d8764%3BstrokeColor%3D%233A5431%3Bsketch%3D1%3BfontColor%3D%23000000%3B%22%20vertex%3D%221%22%20parent%3D%221%22%3E%3CmxGeometry%20x%3D%22460%22%20y%3D%22580%22%20width%3D%22220%22%20height%3D%22130%22%20as%3D%22geometry%22%2F%3E%3C%2FmxCell%3E%3C%2Froot%3E%3C%2FmxGraphModel%3&lt;br&gt;&lt;/span&gt;" style="verticalAlign=top;align=left;overflow=fill;fontSize=19;fontFamily=Helvetica;html=1;fillColor=#6d8764;strokeColor=#3A5431;sketch=1;fontColor=#000000;" parent="1" vertex="1">
          <mxGeometry x="990" y="550" width="300" height="130" as="geometry" />
        </mxCell>
        <mxCell id="sStkoHMuvhqnxal9wtGp-19" value="" style="endArrow=diamondThin;endFill=0;endSize=24;html=1;rounded=1;shadow=0;labelBorderColor=none;sketch=1;fontSize=19;fontColor=#000000;entryX=0.47;entryY=1.008;entryDx=0;entryDy=0;entryPerimeter=0;exitX=0.385;exitY=-0.031;exitDx=0;exitDy=0;exitPerimeter=0;labelBackgroundColor=#F4F1DE;strokeColor=#3A5431;fillColor=#6d8764;" parent="1" source="sStkoHMuvhqnxal9wtGp-17" target="sStkoHMuvhqnxal9wtGp-16" edge="1">
          <mxGeometry width="160" relative="1" as="geometry">
            <mxPoint x="466.03999999999996" y="643.04" as="sourcePoint" />
            <mxPoint x="311.98" y="641.02" as="targetPoint" />
          </mxGeometry>
        </mxCell>
        <mxCell id="sStkoHMuvhqnxal9wtGp-20" value="" style="endArrow=diamondThin;endFill=0;endSize=24;html=1;rounded=1;shadow=0;labelBorderColor=none;sketch=1;fontSize=19;fontColor=#000000;exitX=0.413;exitY=-0.015;exitDx=0;exitDy=0;exitPerimeter=0;labelBackgroundColor=#F4F1DE;strokeColor=#3A5431;fillColor=#6d8764;" parent="1" source="sStkoHMuvhqnxal9wtGp-18" target="sStkoHMuvhqnxal9wtGp-16" edge="1">
          <mxGeometry width="160" relative="1" as="geometry">
            <mxPoint x="953.9499999999998" y="745.97" as="sourcePoint" />
            <mxPoint x="1001" y="691.04" as="targetPoint" />
          </mxGeometry>
        </mxCell>
        <mxCell id="sStkoHMuvhqnxal9wtGp-21" value="&lt;p style=&quot;margin: 4px 0px 0px ; text-align: center ; text-decoration: underline ; font-size: 19px&quot;&gt;&lt;b style=&quot;font-size: 19px&quot;&gt;charlie brown jr:Artista&lt;/b&gt;&lt;/p&gt;&lt;hr style=&quot;font-size: 19px&quot;&gt;&lt;p style=&quot;margin: 0px 0px 0px 8px ; font-size: 19px&quot;&gt;gênero: rock nacional&lt;/p&gt;&lt;p style=&quot;margin: 0px 0px 0px 8px ; font-size: 19px&quot;&gt;cidade: Santos/SP&lt;/p&gt;&lt;p style=&quot;margin: 0px 0px 0px 8px ; font-size: 19px&quot;&gt;vocalista: Chorão&lt;/p&gt;&lt;span style=&quot;font-family: monospace; font-size: 0px;&quot;&gt;%3CmxGraphModel%3E%3Croot%3E%3CmxCell%20id%3D%220%22%2F%3E%3CmxCell%20id%3D%221%22%20parent%3D%220%22%2F%3E%3CmxCell%20id%3D%222%22%20value%3D%22%26lt%3Bp%20style%3D%26quot%3Bmargin%3A%204px%200px%200px%20%3B%20text-align%3A%20center%20%3B%20text-decoration%3A%20underline%20%3B%20font-size%3A%2019px%26quot%3B%26gt%3B%26lt%3Bb%20style%3D%26quot%3Bfont-size%3A%2019px%26quot%3B%26gt%3Blivro%3AProduto%26lt%3B%2Fb%26gt%3B%26lt%3B%2Fp%26gt%3B%26lt%3Bhr%20style%3D%26quot%3Bfont-size%3A%2019px%26quot%3B%26gt%3B%26lt%3Bp%20style%3D%26quot%3Bmargin%3A%200px%200px%200px%208px%20%3B%20font-size%3A%2019px%26quot%3B%26gt%3Btitulo%3A%20Sob%20a%20Redoma%26lt%3B%2Fp%26gt%3B%26lt%3Bp%20style%3D%26quot%3Bmargin%3A%200px%200px%200px%208px%20%3B%20font-size%3A%2019px%26quot%3B%26gt%3Bautor%3A%20Stephen%20King%26lt%3B%2Fp%26gt%3B%22%20style%3D%22verticalAlign%3Dtop%3Balign%3Dleft%3Boverflow%3Dfill%3BfontSize%3D19%3BfontFamily%3DHelvetica%3Bhtml%3D1%3BfillColor%3D%236d8764%3BstrokeColor%3D%233A5431%3Bsketch%3D1%3BfontColor%3D%23000000%3B%22%20vertex%3D%221%22%20parent%3D%221%22%3E%3CmxGeometry%20x%3D%22460%22%20y%3D%22580%22%20width%3D%22220%22%20height%3D%22130%22%20as%3D%22geometry%22%2F%3E%3C%2FmxCell%3E%3C%2Froot%3E%3C%2FmxGraphModel%3&lt;br&gt;&lt;/span&gt;" style="verticalAlign=top;align=left;overflow=fill;fontSize=19;fontFamily=Helvetica;html=1;fillColor=#6d8764;strokeColor=#3A5431;sketch=1;fontColor=#000000;" parent="1" vertex="1">
          <mxGeometry x="820" y="140" width="300" height="130" as="geometry" />
        </mxCell>
        <mxCell id="sStkoHMuvhqnxal9wtGp-22" value="&lt;p style=&quot;margin: 4px 0px 0px ; text-align: center ; text-decoration: underline ; font-size: 19px&quot;&gt;&lt;b style=&quot;font-size: 19px&quot;&gt;camisa 10 joga bola ate na chuva:Álbum&lt;/b&gt;&lt;/p&gt;&lt;hr style=&quot;font-size: 19px&quot;&gt;&lt;p style=&quot;margin: 0px 0px 0px 8px ; font-size: 19px&quot;&gt;ano: 2009&lt;/p&gt;&lt;span style=&quot;font-family: monospace; font-size: 0px;&quot;&gt;%3CmxGraphModel%3E%3Croot%3E%3CmxCell%20id%3D%220%22%2F%3E%3CmxCell%20id%3D%221%22%20parent%3D%220%22%2F%3E%3CmxCell%20id%3D%222%22%20value%3D%22%26lt%3Bp%20style%3D%26quot%3Bmargin%3A%204px%200px%200px%20%3B%20text-align%3A%20center%20%3B%20text-decoration%3A%20underline%20%3B%20font-size%3A%2019px%26quot%3B%26gt%3B%26lt%3Bb%20style%3D%26quot%3Bfont-size%3A%2019px%26quot%3B%26gt%3Blivro%3AProduto%26lt%3B%2Fb%26gt%3B%26lt%3B%2Fp%26gt%3B%26lt%3Bhr%20style%3D%26quot%3Bfont-size%3A%2019px%26quot%3B%26gt%3B%26lt%3Bp%20style%3D%26quot%3Bmargin%3A%200px%200px%200px%208px%20%3B%20font-size%3A%2019px%26quot%3B%26gt%3Btitulo%3A%20Sob%20a%20Redoma%26lt%3B%2Fp%26gt%3B%26lt%3Bp%20style%3D%26quot%3Bmargin%3A%200px%200px%200px%208px%20%3B%20font-size%3A%2019px%26quot%3B%26gt%3Bautor%3A%20Stephen%20King%26lt%3B%2Fp%26gt%3B%22%20style%3D%22verticalAlign%3Dtop%3Balign%3Dleft%3Boverflow%3Dfill%3BfontSize%3D19%3BfontFamily%3DHelvetica%3Bhtml%3D1%3BfillColor%3D%236d8764%3BstrokeColor%3D%233A5431%3Bsketch%3D1%3BfontColor%3D%23000000%3B%22%20vertex%3D%221%22%20parent%3D%221%22%3E%3CmxGeometry%20x%3D%22460%22%20y%3D%22580%22%20width%3D%22220%22%20height%3D%22130%22%20as%3D%22geometry%22%2F%3E%3C%2FmxCell%3E%3C%2Froot%3E%3C%2FmxGraphModel%3&lt;br&gt;&lt;/span&gt;" style="verticalAlign=top;align=left;overflow=fill;fontSize=19;fontFamily=Helvetica;html=1;fillColor=#6d8764;strokeColor=#3A5431;sketch=1;fontColor=#000000;" parent="1" vertex="1">
          <mxGeometry x="1180" y="180" width="450" height="130" as="geometry" />
        </mxCell>
        <mxCell id="sStkoHMuvhqnxal9wtGp-23" value="&lt;p style=&quot;margin: 4px 0px 0px ; text-align: center ; text-decoration: underline ; font-size: 19px&quot;&gt;&lt;b style=&quot;font-size: 19px&quot;&gt;me encontra:Música&lt;/b&gt;&lt;/p&gt;&lt;hr style=&quot;font-size: 19px&quot;&gt;&lt;p style=&quot;margin: 0px 0px 0px 8px ; font-size: 19px&quot;&gt;duração: 3m31s&lt;/p&gt;&lt;span style=&quot;font-family: monospace; font-size: 0px;&quot;&gt;%3CmxGraphModel%3E%3Croot%3E%3CmxCell%20id%3D%220%22%2F%3E%3CmxCell%20id%3D%221%22%20parent%3D%220%22%2F%3E%3CmxCell%20id%3D%222%22%20value%3D%22%26lt%3Bp%20style%3D%26quot%3Bmargin%3A%204px%200px%200px%20%3B%20text-align%3A%20center%20%3B%20text-decoration%3A%20underline%20%3B%20font-size%3A%2019px%26quot%3B%26gt%3B%26lt%3Bb%20style%3D%26quot%3Bfont-size%3A%2019px%26quot%3B%26gt%3Blivro%3AProduto%26lt%3B%2Fb%26gt%3B%26lt%3B%2Fp%26gt%3B%26lt%3Bhr%20style%3D%26quot%3Bfont-size%3A%2019px%26quot%3B%26gt%3B%26lt%3Bp%20style%3D%26quot%3Bmargin%3A%200px%200px%200px%208px%20%3B%20font-size%3A%2019px%26quot%3B%26gt%3Btitulo%3A%20Sob%20a%20Redoma%26lt%3B%2Fp%26gt%3B%26lt%3Bp%20style%3D%26quot%3Bmargin%3A%200px%200px%200px%208px%20%3B%20font-size%3A%2019px%26quot%3B%26gt%3Bautor%3A%20Stephen%20King%26lt%3B%2Fp%26gt%3B%22%20style%3D%22verticalAlign%3Dtop%3Balign%3Dleft%3Boverflow%3Dfill%3BfontSize%3D19%3BfontFamily%3DHelvetica%3Bhtml%3D1%3BfillColor%3D%236d8764%3BstrokeColor%3D%233A5431%3Bsketch%3D1%3BfontColor%3D%23000000%3B%22%20vertex%3D%221%22%20parent%3D%221%22%3E%3CmxGeometry%20x%3D%22460%22%20y%3D%22580%22%20width%3D%22220%22%20height%3D%22130%22%20as%3D%22geometry%22%2F%3E%3C%2FmxCell%3E%3C%2Froot%3E%3C%2FmxGraphModel%3&lt;br&gt;&lt;/span&gt;" style="verticalAlign=top;align=left;overflow=fill;fontSize=19;fontFamily=Helvetica;html=1;fillColor=#6d8764;strokeColor=#3A5431;sketch=1;fontColor=#000000;" parent="1" vertex="1">
          <mxGeometry x="1330" y="560" width="300" height="130" as="geometry" />
        </mxCell>
        <mxCell id="sStkoHMuvhqnxal9wtGp-24" value="" style="endArrow=diamondThin;endFill=0;endSize=24;html=1;rounded=1;shadow=0;labelBorderColor=none;sketch=1;fontSize=19;fontColor=#000000;exitX=0.827;exitY=0;exitDx=0;exitDy=0;exitPerimeter=0;entryX=0.653;entryY=1.023;entryDx=0;entryDy=0;entryPerimeter=0;labelBackgroundColor=#F4F1DE;strokeColor=#3A5431;fillColor=#6d8764;" parent="1" source="sStkoHMuvhqnxal9wtGp-23" target="sStkoHMuvhqnxal9wtGp-22" edge="1">
          <mxGeometry width="160" relative="1" as="geometry">
            <mxPoint x="1123.9" y="548.05" as="sourcePoint" />
            <mxPoint x="1065.7129588677576" y="500" as="targetPoint" />
          </mxGeometry>
        </mxCell>
        <mxCell id="sStkoHMuvhqnxal9wtGp-25" value="" style="endArrow=diamondThin;endFill=0;endSize=24;html=1;rounded=1;shadow=0;labelBorderColor=none;sketch=1;fontSize=19;fontColor=#000000;exitX=0.687;exitY=-0.023;exitDx=0;exitDy=0;exitPerimeter=0;entryX=0.68;entryY=1.015;entryDx=0;entryDy=0;entryPerimeter=0;labelBackgroundColor=#F4F1DE;strokeColor=#3A5431;fillColor=#6d8764;" parent="1" source="sStkoHMuvhqnxal9wtGp-16" target="sStkoHMuvhqnxal9wtGp-21" edge="1">
          <mxGeometry width="160" relative="1" as="geometry">
            <mxPoint x="1123.9" y="548.05" as="sourcePoint" />
            <mxPoint x="1065.7129588677576" y="500" as="targetPoint" />
          </mxGeometry>
        </mxCell>
        <mxCell id="sStkoHMuvhqnxal9wtGp-26" value="" style="endArrow=diamondThin;endFill=0;endSize=24;html=1;rounded=1;shadow=0;labelBorderColor=none;sketch=1;fontSize=19;fontColor=#000000;exitX=-0.002;exitY=0.331;exitDx=0;exitDy=0;exitPerimeter=0;entryX=1;entryY=0.75;entryDx=0;entryDy=0;labelBackgroundColor=#F4F1DE;strokeColor=#3A5431;fillColor=#6d8764;" parent="1" source="sStkoHMuvhqnxal9wtGp-22" target="sStkoHMuvhqnxal9wtGp-21" edge="1">
          <mxGeometry width="160" relative="1" as="geometry">
            <mxPoint x="1043.1" y="367.01" as="sourcePoint" />
            <mxPoint x="1034" y="281.95000000000005" as="targetPoint" />
          </mxGeometry>
        </mxCell>
        <mxCell id="sStkoHMuvhqnxal9wtGp-27" value="&lt;p style=&quot;margin: 4px 0px 0px ; text-align: center ; text-decoration: underline ; font-size: 19px&quot;&gt;&lt;b style=&quot;font-size: 19px&quot;&gt;musicas favoritas:Playlist&lt;/b&gt;&lt;/p&gt;&lt;hr style=&quot;font-size: 19px&quot;&gt;&lt;p style=&quot;margin: 0px 0px 0px 8px ; font-size: 19px&quot;&gt;criação: 2022-04-27&lt;/p&gt;&lt;span style=&quot;font-family: monospace; font-size: 0px;&quot;&gt;%3CmxGraphModel%3E%3Croot%3E%3CmxCell%20id%3D%220%22%2F%3E%3CmxCell%20id%3D%221%22%20parent%3D%220%22%2F%3E%3CmxCell%20id%3D%222%22%20value%3D%22%26lt%3Bp%20style%3D%26quot%3Bmargin%3A%204px%200px%200px%20%3B%20text-align%3A%20center%20%3B%20text-decoration%3A%20underline%20%3B%20font-size%3A%2019px%26quot%3B%26gt%3B%26lt%3Bb%20style%3D%26quot%3Bfont-size%3A%2019px%26quot%3B%26gt%3Blivro%3AProduto%26lt%3B%2Fb%26gt%3B%26lt%3B%2Fp%26gt%3B%26lt%3Bhr%20style%3D%26quot%3Bfont-size%3A%2019px%26quot%3B%26gt%3B%26lt%3Bp%20style%3D%26quot%3Bmargin%3A%200px%200px%200px%208px%20%3B%20font-size%3A%2019px%26quot%3B%26gt%3Btitulo%3A%20Sob%20a%20Redoma%26lt%3B%2Fp%26gt%3B%26lt%3Bp%20style%3D%26quot%3Bmargin%3A%200px%200px%200px%208px%20%3B%20font-size%3A%2019px%26quot%3B%26gt%3Bautor%3A%20Stephen%20King%26lt%3B%2Fp%26gt%3B%22%20style%3D%22verticalAlign%3Dtop%3Balign%3Dleft%3Boverflow%3Dfill%3BfontSize%3D19%3BfontFamily%3DHelvetica%3Bhtml%3D1%3BfillColor%3D%236d8764%3BstrokeColor%3D%233A5431%3Bsketch%3D1%3BfontColor%3D%23000000%3B%22%20vertex%3D%221%22%20parent%3D%221%22%3E%3CmxGeometry%20x%3D%22460%22%20y%3D%22580%22%20width%3D%22220%22%20height%3D%22130%22%20as%3D%22geometry%22%2F%3E%3C%2FmxCell%3E%3C%2Froot%3E%3C%2FmxGraphModel%3&lt;br&gt;&lt;/span&gt;" style="verticalAlign=top;align=left;overflow=fill;fontSize=19;fontFamily=Helvetica;html=1;fillColor=#6d8764;strokeColor=#3A5431;sketch=1;fontColor=#000000;" parent="1" vertex="1">
          <mxGeometry x="1200" y="830" width="300" height="130" as="geometry" />
        </mxCell>
        <mxCell id="sStkoHMuvhqnxal9wtGp-28" value="" style="endArrow=diamondThin;endFill=0;endSize=24;html=1;rounded=1;shadow=0;labelBorderColor=none;sketch=1;fontSize=19;fontColor=#000000;entryX=0.19;entryY=-0.015;entryDx=0;entryDy=0;exitX=0.5;exitY=1;exitDx=0;exitDy=0;entryPerimeter=0;labelBackgroundColor=#F4F1DE;strokeColor=#3A5431;fillColor=#6d8764;" parent="1" source="sStkoHMuvhqnxal9wtGp-18" target="sStkoHMuvhqnxal9wtGp-27" edge="1">
          <mxGeometry width="160" relative="1" as="geometry">
            <mxPoint x="863.9499999999998" y="705.97" as="sourcePoint" />
            <mxPoint x="978" y="501.03999999999996" as="targetPoint" />
          </mxGeometry>
        </mxCell>
        <mxCell id="sStkoHMuvhqnxal9wtGp-29" value="" style="endArrow=diamondThin;endFill=0;endSize=24;html=1;rounded=1;shadow=0;labelBorderColor=none;sketch=1;fontSize=19;fontColor=#000000;entryX=0.57;entryY=0.015;entryDx=0;entryDy=0;entryPerimeter=0;labelBackgroundColor=#F4F1DE;strokeColor=#3A5431;fillColor=#6d8764;" parent="1" source="sStkoHMuvhqnxal9wtGp-23" target="sStkoHMuvhqnxal9wtGp-27" edge="1">
          <mxGeometry width="160" relative="1" as="geometry">
            <mxPoint x="1150" y="680" as="sourcePoint" />
            <mxPoint x="1257" y="838.05" as="targetPoint" />
          </mxGeometry>
        </mxCell>
        <mxCell id="sStkoHMuvhqnxal9wtGp-30" value="" style="rounded=0;whiteSpace=wrap;html=1;sketch=1;fontColor=#ffffff;strokeColor=#432D57;fillColor=#76608a;glass=0;shadow=0;strokeWidth=1;" parent="1" vertex="1">
          <mxGeometry x="780" y="110" width="10" height="960" as="geometry" />
        </mxCell>
        <mxCell id="sStkoHMuvhqnxal9wtGp-31" value="Agregações" style="text;html=1;strokeColor=none;fillColor=none;align=left;verticalAlign=middle;whiteSpace=wrap;rounded=0;shadow=0;glass=0;sketch=1;fontSize=38;fontColor=#393C56;" parent="1" vertex="1">
          <mxGeometry x="1300" y="90" width="170" height="30" as="geometry" />
        </mxCell>
        <mxCell id="sStkoHMuvhqnxal9wtGp-32" value="&lt;p style=&quot;margin: 4px 0px 0px ; text-align: center ; text-decoration: underline ; font-size: 19px&quot;&gt;&lt;b style=&quot;font-size: 19px&quot;&gt;só os loucos sabem:Música&lt;/b&gt;&lt;/p&gt;&lt;hr style=&quot;font-size: 19px&quot;&gt;&lt;p style=&quot;margin: 0px 0px 0px 8px ; font-size: 19px&quot;&gt;duração: 3m31s&lt;/p&gt;&lt;span style=&quot;font-family: monospace ; font-size: 0px&quot;&gt;%3CmxGraphModel%3E%3Croot%3E%3CmxCell%20id%3D%220%22%2F%3E%3CmxCell%20id%3D%221%22%20parent%3D%220%22%2F%3E%3CmxCell%20id%3D%222%22%20value%3D%22%26lt%3Bp%20style%3D%26quot%3Bmargin%3A%204px%200px%200px%20%3B%20text-align%3A%20center%20%3B%20text-decoration%3A%20underline%20%3B%20font-size%3A%2019px%26quot%3B%26gt%3B%26lt%3Bb%20style%3D%26quot%3Bfont-size%3A%2019px%26quot%3B%26gt%3Blivro%3AProduto%26lt%3B%2Fb%26gt%3B%26lt%3B%2Fp%26gt%3B%26lt%3Bhr%20style%3D%26quot%3Bfont-size%3A%2019px%26quot%3B%26gt%3B%26lt%3Bp%20style%3D%26quot%3Bmargin%3A%200px%200px%200px%208px%20%3B%20font-size%3A%2019px%26quot%3B%26gt%3Btitulo%3A%20Sob%20a%20Redoma%26lt%3B%2Fp%26gt%3B%26lt%3Bp%20style%3D%26quot%3Bmargin%3A%200px%200px%200px%208px%20%3B%20font-size%3A%2019px%26quot%3B%26gt%3Bautor%3A%20Stephen%20King%26lt%3B%2Fp%26gt%3B%22%20style%3D%22verticalAlign%3Dtop%3Balign%3Dleft%3Boverflow%3Dfill%3BfontSize%3D19%3BfontFamily%3DHelvetica%3Bhtml%3D1%3BfillColor%3D%236d8764%3BstrokeColor%3D%233A5431%3Bsketch%3D1%3BfontColor%3D%23000000%3B%22%20vertex%3D%221%22%20parent%3D%221%22%3E%3CmxGeometry%20x%3D%22460%22%20y%3D%22580%22%20width%3D%22220%22%20height%3D%22130%22%20as%3D%22geometry%22%2F%3E%3C%2FmxCell%3E%3C%2Froot%3E%3C%2FmxGraphModel%3&lt;br&gt;&lt;/span&gt;" style="verticalAlign=top;align=left;overflow=fill;fontSize=19;fontFamily=Helvetica;html=1;fillColor=#6d8764;strokeColor=#3A5431;sketch=1;fontColor=#000000;" parent="1" vertex="1">
          <mxGeometry x="1180" y="380" width="300" height="130" as="geometry" />
        </mxCell>
        <mxCell id="sStkoHMuvhqnxal9wtGp-33" value="" style="endArrow=diamondThin;endFill=0;endSize=24;html=1;rounded=1;shadow=0;labelBorderColor=none;sketch=1;fontSize=19;fontColor=#000000;labelBackgroundColor=#F4F1DE;strokeColor=#3A5431;fillColor=#6d8764;" parent="1" source="sStkoHMuvhqnxal9wtGp-32" target="sStkoHMuvhqnxal9wtGp-22" edge="1">
          <mxGeometry width="160" relative="1" as="geometry">
            <mxPoint x="1462" y="571.95" as="sourcePoint" />
            <mxPoint x="1438.0500000000002" y="502.99" as="targetPoint" />
          </mxGeometry>
        </mxCell>
        <mxCell id="sStkoHMuvhqnxal9wtGp-34" value="Diagrama de Objetos" style="text;html=1;strokeColor=none;fillColor=none;align=center;verticalAlign=middle;whiteSpace=wrap;rounded=0;shadow=0;glass=0;sketch=1;fontSize=44;fontColor=#393C56;" parent="1" vertex="1">
          <mxGeometry x="560" y="20" width="470" height="30" as="geometry" />
        </mxCell>
      </root>
    </mxGraphModel>
  </diagram>
  <diagram name="diagramas de classes" id="5drbC7_BIwxByEqElN-S">
    <mxGraphModel dx="1422" dy="794" grid="1" gridSize="10" guides="1" tooltips="1" connect="1" arrows="1" fold="1" page="1" pageScale="1" pageWidth="827" pageHeight="1169" background="#F4F1DE" math="0" shadow="0">
      <root>
        <mxCell id="0" />
        <mxCell id="1" parent="0" />
        <mxCell id="vhnCWNq2jFseixWeg8CJ-2" value="&lt;p style=&quot;margin: 4px 0px 0px ; text-align: center ; font-size: 19px&quot;&gt;&lt;b&gt;Musica&lt;/b&gt;&lt;/p&gt;&lt;hr style=&quot;font-size: 19px&quot;&gt;&lt;p style=&quot;margin: 0px 0px 0px 4px ; font-size: 19px&quot;&gt;&lt;font style=&quot;font-size: 19px&quot;&gt;- título: String&lt;/font&gt;&lt;/p&gt;&lt;hr style=&quot;font-size: 19px&quot;&gt;&lt;p style=&quot;margin: 0px 0px 0px 4px ; font-size: 19px&quot;&gt;&lt;font style=&quot;font-size: 19px&quot;&gt;+ getTitulo(): String&lt;/font&gt;&lt;/p&gt;" style="verticalAlign=top;align=left;overflow=fill;fontSize=18;fontFamily=Helvetica;html=1;rounded=0;sketch=1;strokeColor=#BD7000;fillColor=#f0a30a;fontColor=#000000;strokeWidth=1;" vertex="1" parent="1">
          <mxGeometry x="520" y="370" width="210" height="140" as="geometry" />
        </mxCell>
        <mxCell id="RmT6bmh8UseuuJPw0-jA-1" value="&#39;+&#39; = publico&lt;br&gt;&#39;-&#39; = privado&amp;nbsp;" style="text;html=1;strokeColor=none;fillColor=none;align=left;verticalAlign=middle;whiteSpace=wrap;rounded=0;sketch=1;fontSize=19;fontColor=#393C56;" vertex="1" parent="1">
          <mxGeometry x="657" y="170" width="170" height="30" as="geometry" />
        </mxCell>
        <mxCell id="RmT6bmh8UseuuJPw0-jA-2" value="&lt;p style=&quot;margin: 4px 0px 0px ; text-align: center ; font-size: 19px&quot;&gt;&lt;b&gt;Album&lt;/b&gt;&lt;/p&gt;&lt;hr style=&quot;font-size: 19px&quot;&gt;&lt;p style=&quot;margin: 0px 0px 0px 4px ; font-size: 19px&quot;&gt;&lt;font style=&quot;font-size: 19px&quot;&gt;- titulo: String&lt;/font&gt;&lt;/p&gt;&lt;hr style=&quot;font-size: 19px&quot;&gt;&lt;p style=&quot;margin: 0px 0px 0px 4px ; font-size: 19px&quot;&gt;&lt;font style=&quot;font-size: 19px&quot;&gt;+ getTitulo(): String&lt;/font&gt;&lt;/p&gt;" style="verticalAlign=top;align=left;overflow=fill;fontSize=18;fontFamily=Helvetica;html=1;rounded=0;sketch=1;strokeColor=#BD7000;fillColor=#f0a30a;fontColor=#000000;strokeWidth=1;" vertex="1" parent="1">
          <mxGeometry x="414" y="155" width="210" height="140" as="geometry" />
        </mxCell>
        <mxCell id="RmT6bmh8UseuuJPw0-jA-3" value="" style="endArrow=diamondThin;endFill=0;endSize=24;html=1;rounded=1;sketch=0;fontSize=19;fontColor=#393C56;strokeColor=#E07A5F;fillColor=#F2CC8F;exitX=0.681;exitY=-0.029;exitDx=0;exitDy=0;exitPerimeter=0;" edge="1" parent="1" source="vhnCWNq2jFseixWeg8CJ-2" target="RmT6bmh8UseuuJPw0-jA-2">
          <mxGeometry width="160" relative="1" as="geometry">
            <mxPoint x="210" y="210" as="sourcePoint" />
            <mxPoint x="370" y="210" as="targetPoint" />
          </mxGeometry>
        </mxCell>
        <mxCell id="RmT6bmh8UseuuJPw0-jA-6" value="n" style="edgeLabel;html=1;align=center;verticalAlign=middle;resizable=0;points=[];fontSize=19;fontColor=#393C56;labelBackgroundColor=#FFD966;" vertex="1" connectable="0" parent="RmT6bmh8UseuuJPw0-jA-3">
          <mxGeometry x="0.2852" y="4" relative="1" as="geometry">
            <mxPoint as="offset" />
          </mxGeometry>
        </mxCell>
        <mxCell id="RmT6bmh8UseuuJPw0-jA-7" value="&lt;p style=&quot;margin: 4px 0px 0px ; text-align: center ; font-size: 19px&quot;&gt;&lt;b&gt;Gravadora&lt;/b&gt;&lt;/p&gt;&lt;hr style=&quot;font-size: 19px&quot;&gt;&lt;p style=&quot;margin: 0px 0px 0px 4px ; font-size: 19px&quot;&gt;&lt;font style=&quot;font-size: 19px&quot;&gt;- titulo: String&lt;/font&gt;&lt;/p&gt;&lt;hr style=&quot;font-size: 19px&quot;&gt;&lt;p style=&quot;margin: 0px 0px 0px 4px ; font-size: 19px&quot;&gt;&lt;font style=&quot;font-size: 19px&quot;&gt;+ getTitulo(): String&lt;/font&gt;&lt;/p&gt;" style="verticalAlign=top;align=left;overflow=fill;fontSize=18;fontFamily=Helvetica;html=1;rounded=0;sketch=1;strokeColor=#BD7000;fillColor=#f0a30a;fontColor=#000000;strokeWidth=1;" vertex="1" parent="1">
          <mxGeometry x="70" y="190" width="210" height="140" as="geometry" />
        </mxCell>
        <mxCell id="RmT6bmh8UseuuJPw0-jA-8" value="" style="endArrow=diamondThin;endFill=0;endSize=24;html=1;sketch=0;fontSize=19;fontColor=#393C56;strokeColor=#E07A5F;fillColor=#F2CC8F;exitX=-0.01;exitY=0.643;exitDx=0;exitDy=0;exitPerimeter=0;rounded=1;" edge="1" parent="1" source="RmT6bmh8UseuuJPw0-jA-2" target="RmT6bmh8UseuuJPw0-jA-7">
          <mxGeometry width="160" relative="1" as="geometry">
            <mxPoint x="520" y="230" as="sourcePoint" />
            <mxPoint x="390" y="225" as="targetPoint" />
          </mxGeometry>
        </mxCell>
        <mxCell id="RmT6bmh8UseuuJPw0-jA-9" value="n" style="edgeLabel;html=1;align=center;verticalAlign=middle;resizable=0;points=[];fontSize=19;fontColor=#393C56;labelBackgroundColor=#FFD966;" vertex="1" connectable="0" parent="RmT6bmh8UseuuJPw0-jA-8">
          <mxGeometry x="0.2852" y="4" relative="1" as="geometry">
            <mxPoint as="offset" />
          </mxGeometry>
        </mxCell>
        <mxCell id="RmT6bmh8UseuuJPw0-jA-10" value="&lt;p style=&quot;margin: 4px 0px 0px ; text-align: center ; font-size: 19px&quot;&gt;&lt;b&gt;Musica&lt;/b&gt;&lt;/p&gt;&lt;hr style=&quot;font-size: 19px&quot;&gt;&lt;p style=&quot;margin: 0px 0px 0px 4px ; font-size: 19px&quot;&gt;&lt;font style=&quot;font-size: 19px&quot;&gt;- titulo: String&lt;/font&gt;&lt;/p&gt;&lt;p style=&quot;margin: 0px 0px 0px 4px ; font-size: 19px&quot;&gt;&lt;font style=&quot;font-size: 19px&quot;&gt;- album: String&lt;/font&gt;&lt;/p&gt;&lt;p style=&quot;margin: 0px 0px 0px 4px ; font-size: 19px&quot;&gt;&lt;font style=&quot;font-size: 19px&quot;&gt;- gravadora: String&lt;/font&gt;&lt;/p&gt;&lt;hr style=&quot;font-size: 19px&quot;&gt;&lt;p style=&quot;margin: 0px 0px 0px 4px ; font-size: 19px&quot;&gt;&lt;font style=&quot;font-size: 19px&quot;&gt;+ getTitulo(): String&lt;/font&gt;&lt;/p&gt;&lt;p style=&quot;margin: 0px 0px 0px 4px ; font-size: 19px&quot;&gt;&lt;font style=&quot;font-size: 19px&quot;&gt;+ getAlbum(): String&amp;nbsp;&lt;/font&gt;&lt;/p&gt;&lt;p style=&quot;margin: 0px 0px 0px 4px ; font-size: 19px&quot;&gt;&lt;font style=&quot;font-size: 19px&quot;&gt;+ getGravadora(): String&lt;/font&gt;&lt;/p&gt;" style="verticalAlign=top;align=left;overflow=fill;fontSize=18;fontFamily=Helvetica;html=1;rounded=0;sketch=1;strokeColor=#C73500;fillColor=#fa6800;fontColor=#000000;strokeWidth=1;" vertex="1" parent="1">
          <mxGeometry x="70" y="440" width="250" height="220" as="geometry" />
        </mxCell>
        <mxCell id="RmT6bmh8UseuuJPw0-jA-11" value="&lt;p style=&quot;margin: 4px 0px 0px ; text-align: center ; font-size: 19px&quot;&gt;&lt;b&gt;Playlist&lt;/b&gt;&lt;/p&gt;&lt;hr style=&quot;font-size: 19px&quot;&gt;&lt;p style=&quot;margin: 0px 0px 0px 4px ; font-size: 19px&quot;&gt;&lt;font style=&quot;font-size: 19px&quot;&gt;+ nome: String&lt;/font&gt;&lt;/p&gt;&lt;p style=&quot;margin: 0px 0px 0px 4px ; font-size: 19px&quot;&gt;&lt;font style=&quot;font-size: 19px&quot;&gt;+ dataHora: LocalDateTime&lt;/font&gt;&lt;/p&gt;&lt;hr style=&quot;font-size: 19px&quot;&gt;&lt;p style=&quot;margin: 0px 0px 0px 4px ; font-size: 19px&quot;&gt;&lt;font style=&quot;font-size: 19px&quot;&gt;+ adicionarMusica(Musica): void&lt;/font&gt;&lt;/p&gt;&lt;p style=&quot;margin: 0px 0px 0px 4px ; font-size: 19px&quot;&gt;&lt;font style=&quot;font-size: 19px&quot;&gt;+ removerMusica(Musica): void&lt;/font&gt;&lt;/p&gt;&lt;p style=&quot;margin: 0px 0px 0px 4px ; font-size: 19px&quot;&gt;&lt;font style=&quot;font-size: 19px&quot;&gt;+ reordenar(Musica, posicao: int): void&amp;nbsp;&lt;/font&gt;&lt;/p&gt;" style="verticalAlign=top;align=left;overflow=fill;fontSize=18;fontFamily=Helvetica;html=1;rounded=0;sketch=1;strokeColor=#BD7000;fillColor=#f0a30a;fontColor=#000000;strokeWidth=1;" vertex="1" parent="1">
          <mxGeometry x="414" y="610" width="350" height="200" as="geometry" />
        </mxCell>
        <mxCell id="RmT6bmh8UseuuJPw0-jA-13" value="com coesão" style="text;html=1;strokeColor=none;fillColor=none;align=left;verticalAlign=middle;whiteSpace=wrap;rounded=0;sketch=1;fontSize=23;fontColor=#393C56;" vertex="1" parent="1">
          <mxGeometry x="70" y="150" width="170" height="30" as="geometry" />
        </mxCell>
        <mxCell id="RmT6bmh8UseuuJPw0-jA-14" value="sem coesão" style="text;html=1;strokeColor=none;fillColor=none;align=left;verticalAlign=middle;whiteSpace=wrap;rounded=0;sketch=1;fontSize=23;fontColor=#393C56;" vertex="1" parent="1">
          <mxGeometry x="70" y="400" width="170" height="30" as="geometry" />
        </mxCell>
        <mxCell id="RmT6bmh8UseuuJPw0-jA-15" value="" style="endArrow=diamondThin;endFill=0;endSize=24;html=1;rounded=1;sketch=0;fontSize=19;fontColor=#393C56;strokeColor=#E07A5F;fillColor=#F2CC8F;exitX=0.5;exitY=1;exitDx=0;exitDy=0;entryX=0.5;entryY=0;entryDx=0;entryDy=0;" edge="1" parent="1" source="vhnCWNq2jFseixWeg8CJ-2" target="RmT6bmh8UseuuJPw0-jA-11">
          <mxGeometry width="160" relative="1" as="geometry">
            <mxPoint x="683.0100000000002" y="365.94000000000005" as="sourcePoint" />
            <mxPoint x="608.3048403707519" y="300" as="targetPoint" />
          </mxGeometry>
        </mxCell>
        <mxCell id="RmT6bmh8UseuuJPw0-jA-16" value="n" style="edgeLabel;html=1;align=center;verticalAlign=middle;resizable=0;points=[];fontSize=19;fontColor=#393C56;labelBackgroundColor=#FFD966;" vertex="1" connectable="0" parent="RmT6bmh8UseuuJPw0-jA-15">
          <mxGeometry x="0.2852" y="4" relative="1" as="geometry">
            <mxPoint as="offset" />
          </mxGeometry>
        </mxCell>
        <mxCell id="UOq8Ewgta4y34ji7cD1c-1" value="Diagrama de Classes" style="text;html=1;strokeColor=none;fillColor=none;align=center;verticalAlign=middle;whiteSpace=wrap;rounded=0;shadow=0;glass=0;sketch=1;fontSize=44;fontColor=#393C56;" vertex="1" parent="1">
          <mxGeometry x="600" y="30" width="470" height="30" as="geometry" />
        </mxCell>
        <mxCell id="UOq8Ewgta4y34ji7cD1c-2" value="&lt;p style=&quot;margin: 4px 0px 0px ; text-align: center ; font-size: 19px&quot;&gt;&lt;b&gt;Evento&lt;/b&gt;&lt;/p&gt;&lt;hr style=&quot;font-size: 19px&quot;&gt;&lt;p style=&quot;margin: 0px 0px 0px 4px ; font-size: 19px&quot;&gt;&lt;font style=&quot;font-size: 19px&quot;&gt;- nome: String&lt;/font&gt;&lt;/p&gt;&lt;hr style=&quot;font-size: 19px&quot;&gt;&lt;p style=&quot;margin: 0px 0px 0px 4px ; font-size: 19px&quot;&gt;&lt;font style=&quot;font-size: 19px&quot;&gt;+ getNome(): String&lt;/font&gt;&lt;/p&gt;" style="verticalAlign=top;align=left;overflow=fill;fontSize=18;fontFamily=Helvetica;html=1;rounded=0;sketch=1;strokeColor=#B09500;fillColor=#e3c800;fontColor=#000000;strokeWidth=1;" vertex="1" parent="1">
          <mxGeometry x="900" y="190" width="240" height="140" as="geometry" />
        </mxCell>
        <mxCell id="UOq8Ewgta4y34ji7cD1c-3" value="&lt;p style=&quot;margin: 4px 0px 0px ; text-align: center ; font-size: 19px&quot;&gt;&lt;b&gt;Ingresso&lt;/b&gt;&lt;/p&gt;&lt;hr style=&quot;font-size: 19px&quot;&gt;&lt;p style=&quot;margin: 0px 0px 0px 4px ; font-size: 19px&quot;&gt;&lt;font style=&quot;font-size: 19px&quot;&gt;- numero: int&lt;/font&gt;&lt;/p&gt;&lt;p style=&quot;margin: 0px 0px 0px 4px ; font-size: 19px&quot;&gt;- assento: int&lt;/p&gt;&lt;hr style=&quot;font-size: 19px&quot;&gt;&lt;p style=&quot;margin: 0px 0px 0px 4px ; font-size: 19px&quot;&gt;+ getNumero(): int&lt;br&gt;&lt;/p&gt;&lt;p style=&quot;margin: 0px 0px 0px 4px ; font-size: 19px&quot;&gt;+ getAssento(): int&lt;br&gt;&lt;/p&gt;" style="verticalAlign=top;align=left;overflow=fill;fontSize=18;fontFamily=Helvetica;html=1;rounded=0;sketch=1;strokeColor=#B09500;fillColor=#e3c800;fontColor=#000000;strokeWidth=1;" vertex="1" parent="1">
          <mxGeometry x="1270" y="185" width="230" height="175" as="geometry" />
        </mxCell>
        <mxCell id="hr0tFsyg4TrAJFIlCHOJ-1" value="" style="endArrow=diamondThin;endFill=0;endSize=24;html=1;rounded=1;sketch=0;fontSize=19;fontColor=#393C56;strokeColor=#B09500;fillColor=#e3c800;exitX=-0.012;exitY=0.611;exitDx=0;exitDy=0;exitPerimeter=0;entryX=0.996;entryY=0.586;entryDx=0;entryDy=0;entryPerimeter=0;" edge="1" parent="1" source="UOq8Ewgta4y34ji7cD1c-3" target="UOq8Ewgta4y34ji7cD1c-2">
          <mxGeometry width="160" relative="1" as="geometry">
            <mxPoint x="673.0100000000002" y="395.94000000000005" as="sourcePoint" />
            <mxPoint x="598.3048403707519" y="330" as="targetPoint" />
          </mxGeometry>
        </mxCell>
        <mxCell id="hr0tFsyg4TrAJFIlCHOJ-2" value="n" style="edgeLabel;html=1;align=center;verticalAlign=middle;resizable=0;points=[];fontSize=19;fontColor=#393C56;labelBackgroundColor=#FFD966;" vertex="1" connectable="0" parent="hr0tFsyg4TrAJFIlCHOJ-1">
          <mxGeometry x="0.2852" y="4" relative="1" as="geometry">
            <mxPoint as="offset" />
          </mxGeometry>
        </mxCell>
        <mxCell id="hr0tFsyg4TrAJFIlCHOJ-3" value="&lt;p style=&quot;margin: 4px 0px 0px ; text-align: center ; font-size: 19px&quot;&gt;&lt;b&gt;Usuario&lt;/b&gt;&lt;/p&gt;&lt;hr style=&quot;font-size: 19px&quot;&gt;&lt;p style=&quot;margin: 0px 0px 0px 4px ; font-size: 19px&quot;&gt;&lt;font style=&quot;font-size: 19px&quot;&gt;- email: String&lt;/font&gt;&lt;/p&gt;&lt;p style=&quot;margin: 0px 0px 0px 4px ; font-size: 19px&quot;&gt;&lt;font style=&quot;font-size: 19px&quot;&gt;- ingressos: int[]&lt;/font&gt;&lt;/p&gt;&lt;hr style=&quot;font-size: 19px&quot;&gt;&lt;p style=&quot;margin: 0px 0px 0px 4px ; font-size: 19px&quot;&gt;&lt;font style=&quot;font-size: 19px&quot;&gt;+ getEmail(): String&lt;/font&gt;&lt;/p&gt;&lt;p style=&quot;margin: 0px 0px 0px 4px ; font-size: 19px&quot;&gt;&lt;font style=&quot;font-size: 19px&quot;&gt;+ getIngressos(): int[]&lt;/font&gt;&lt;/p&gt;&lt;p style=&quot;margin: 0px 0px 0px 4px ; font-size: 19px&quot;&gt;&lt;font style=&quot;font-size: 19px&quot;&gt;+ comprar(Ingresso): void&lt;/font&gt;&lt;/p&gt;" style="verticalAlign=top;align=left;overflow=fill;fontSize=18;fontFamily=Helvetica;html=1;rounded=0;sketch=1;strokeColor=#B09500;fillColor=#e3c800;fontColor=#000000;strokeWidth=1;" vertex="1" parent="1">
          <mxGeometry x="1100" y="470" width="260" height="190" as="geometry" />
        </mxCell>
        <mxCell id="hr0tFsyg4TrAJFIlCHOJ-4" value="" style="endArrow=diamondThin;endFill=0;endSize=24;html=1;rounded=1;sketch=0;fontSize=19;fontColor=#393C56;strokeColor=#B09500;fillColor=#e3c800;exitX=0.75;exitY=0;exitDx=0;exitDy=0;entryX=0.372;entryY=1;entryDx=0;entryDy=0;entryPerimeter=0;" edge="1" parent="1" source="hr0tFsyg4TrAJFIlCHOJ-3" target="UOq8Ewgta4y34ji7cD1c-3">
          <mxGeometry width="160" relative="1" as="geometry">
            <mxPoint x="1276.52" y="301.92499999999995" as="sourcePoint" />
            <mxPoint x="1149.04" y="282.03999999999996" as="targetPoint" />
          </mxGeometry>
        </mxCell>
        <mxCell id="hr0tFsyg4TrAJFIlCHOJ-5" value="n" style="edgeLabel;html=1;align=center;verticalAlign=middle;resizable=0;points=[];fontSize=19;fontColor=#393C56;labelBackgroundColor=#FFD966;" vertex="1" connectable="0" parent="hr0tFsyg4TrAJFIlCHOJ-4">
          <mxGeometry x="0.2852" y="4" relative="1" as="geometry">
            <mxPoint as="offset" />
          </mxGeometry>
        </mxCell>
      </root>
    </mxGraphModel>
  </diagram>
</mxfile>
